<?xml version="1.0" encoding="UTF-8"?>
<svg version="1.1" xmlns="http://www.w3.org/2000/svg" width="197" height="185">
<path d="M0 0 C65.01 0 130.02 0 197 0 C197 61.05 197 122.1 197 185 C131.99 185 66.98 185 0 185 C0 123.95 0 62.9 0 0 Z " fill="#071A28" transform="translate(0,0)"/>
<path d="M0 0 C65.01 0 130.02 0 197 0 C197 61.05 197 122.1 197 185 C131.99 185 66.98 185 0 185 C0 123.95 0 62.9 0 0 Z M29 18 C28.9175 33.819375 28.835 49.63875 28.75 65.9375 C28.71358398 70.919646 28.67716797 75.90179199 28.63964844 81.03491211 C28.62626496 85.52807829 28.62626496 85.52807829 28.6182251 90.02125549 C28.61211078 92.01172977 28.59810071 94.00218987 28.57769775 95.99256897 C28.54823464 99.01996318 28.54438199 102.04645759 28.54589844 105.07397461 C28.531506 105.95032279 28.51711357 106.82667097 28.502285 107.72957516 C28.53869213 113.19304246 29.59026801 117.17568082 32.04941177 122.06282902 C33 124 33 124 33.9375 127.25 C35.31706324 130.82063426 37.14180821 132.45248123 40 135 C40.55558594 135.51175781 41.11117187 136.02351563 41.68359375 136.55078125 C46.32611883 140.74932265 51.24590634 144.49973761 56.2734375 148.22265625 C60.0709161 151.0394906 63.8246237 153.91250044 67.57958984 156.78564453 C71.19332542 159.54840575 74.81632593 162.29888913 78.43945312 165.04931641 C80.81645251 166.8601693 83.18230302 168.6846928 85.546875 170.51171875 C86.88487355 171.52936033 88.2233787 172.54633632 89.5625 173.5625 C90.16296143 174.03349121 90.76342285 174.50448242 91.38208008 174.98974609 C94.3200656 177.35591712 94.3200656 177.35591712 97.89819336 177.81420898 C100.49919478 176.80661928 102.35855348 175.43071176 104.5625 173.71875 C105.87166382 172.71026001 105.87166382 172.71026001 107.20727539 171.68139648 C108.12887451 170.96153564 109.05047363 170.2416748 110 169.5 C111.9151501 168.02185749 113.83051296 166.54399058 115.74609375 165.06640625 C116.66245605 164.35629395 117.57881836 163.64618164 118.52294922 162.91455078 C121.35064286 160.72898272 124.19898597 158.57586515 127.0625 156.4375 C127.95195313 155.77105469 128.84140625 155.10460937 129.7578125 154.41796875 C131.6216499 153.0253262 133.48901652 151.6376418 135.35839844 150.25244141 C138.05395846 148.25500844 140.74572347 146.25252772 143.4375 144.25 C144.30318604 143.61118896 145.16887207 142.97237793 146.06079102 142.31420898 C155.84479407 135.02426125 162.21216839 128.20202981 165 116 C165.36876082 112.61199968 165.38224661 109.27398428 165.34057617 105.86865234 C165.34093778 104.8960528 165.34129938 103.92345325 165.34167194 102.921381 C165.33945354 99.80934847 165.31670408 96.6978721 165.29296875 93.5859375 C165.28855146 91.65014912 165.2854949 89.71435714 165.28381348 87.77856445 C165.26815943 80.64398791 165.22627564 73.50948835 165.1875 66.375 C165.125625 50.41125 165.06375 34.4475 165 18 C120.12 18 75.24 18 29 18 Z " fill="#041724" transform="translate(0,0)"/>
<path d="M0 0 C18.48 0 36.96 0 56 0 C56.16043524 20.6025584 56.16043524 20.6025584 56.1953125 29.41992188 C56.2191756 35.42421704 56.24733216 41.42826699 56.30175781 47.43237305 C56.34538559 52.27588136 56.36917284 57.11912651 56.37950897 61.96281624 C56.38687004 63.80591025 56.40124428 65.64899072 56.42292023 67.49197197 C56.6481494 87.44489462 56.6481494 87.44489462 49.4375 96.0625 C47 98 47 98 44 98 C43.76007324 98.58628174 43.52014648 99.17256348 43.27294922 99.77661133 C41.7413786 102.45171942 40.09934555 103.73246389 37.6328125 105.57421875 C36.75254395 106.23760254 35.87227539 106.90098633 34.96533203 107.58447266 C34.02802246 108.27847168 33.09071289 108.9724707 32.125 109.6875 C31.17351074 110.40212402 30.22202148 111.11674805 29.24169922 111.85302734 C26.50025961 113.90992421 23.75159688 115.95671944 21 118 C18.70730619 119.70696513 16.41588323 121.41560371 14.125 123.125 C13.22265625 123.79660156 12.3203125 124.46820313 11.390625 125.16015625 C9.1438917 126.88925982 7.00267808 128.6899703 4.875 130.5625 C2 133 2 133 0 133 C0.00112793 132.02240723 0.00225586 131.04481445 0.00341797 130.03759766 C-0.00028911 126.36547681 -0.04340591 122.69464207 -0.09765625 119.02294922 C-0.11568029 117.44230508 -0.12340972 115.86150519 -0.12011719 114.28076172 C-0.10790002 104.62309043 -0.23313955 96.61894743 -7 89 C-8.99304025 87.2607417 -10.96240703 85.71123007 -13.16796875 84.25390625 C-15 83 -15 83 -16.3203125 81.3828125 C-18.91389723 79.24762879 -21.39194897 79.47564609 -24.6875 79.3125 C-26.770625 79.209375 -28.85375 79.10625 -31 79 C-31 70.75 -31 62.5 -31 54 C-24.29927007 56.23357664 -24.29927007 56.23357664 -21.0625 57.9375 C-18.48916197 59.26107157 -15.91640525 60.5001995 -13.25 61.625 C-10 63 -10 63 -7.9375 64.125 C-5.35303884 65.29217601 -2.79631308 65.61868458 0 66 C0 65.01 0 64.02 0 63 C-1.258125 62.62875 -2.51625 62.2575 -3.8125 61.875 C-8.63406895 60.28040588 -12.82881872 57.97116934 -17.23828125 55.48046875 C-20.59381273 53.68167606 -24.01795461 52.2976579 -27.5703125 50.94140625 C-32.13197165 49.17394667 -36.62387868 47.18806066 -41 45 C-40.00011101 42.34836068 -39.41294302 41.2174179 -36.86328125 39.875 C-36.02152344 39.58625 -35.17976563 39.2975 -34.3125 39 C-31.19734582 37.85911378 -28.33178109 36.73015742 -25.5 35 C-21.9353084 32.8459802 -18.16716418 31.43523696 -14.2890625 29.94140625 C-11.68539409 28.87061429 -9.39865242 27.46584315 -7 26 C-5.02 25.34 -3.04 24.68 -1 24 C-0.67 16.08 -0.34 8.16 0 0 Z " fill="#81C1ED" transform="translate(97,30)"/>
<path d="M0 0 C44.88 0 89.76 0 136 0 C136.061875 15.96375 136.12375 31.9275 136.1875 48.375 C136.21481201 53.40024902 136.24212402 58.42549805 136.27026367 63.60302734 C136.28381348 69.77856445 136.28381348 69.77856445 136.28633118 72.67715454 C136.29091305 74.68506876 136.30141234 76.69297514 136.31672668 78.70083618 C136.33885414 81.75691893 136.34171242 84.81250087 136.34057617 87.86865234 C136.3513705 88.75077078 136.36216482 89.63288921 136.37328625 90.54173851 C136.32130173 101.06615866 133.23382286 110.24514802 126 118 C122.07126371 121.1548196 117.97074681 123.96705104 113.7890625 126.77197266 C111.06864657 128.63928872 108.47668144 130.65912723 105.875 132.6875 C99.39344307 137.72905162 92.82255709 142.64834337 86.24169922 147.55932617 C85.43490723 148.16236572 84.62811523 148.76540527 83.796875 149.38671875 C83.00345703 149.97630371 82.21003906 150.56588867 81.39257812 151.17333984 C79.74491863 152.43127743 78.12483926 153.72589914 76.52929688 155.04931641 C75.74103516 155.6994873 74.95277344 156.3496582 74.140625 157.01953125 C73.0892334 157.91248901 73.0892334 157.91248901 72.01660156 158.82348633 C70 160 70 160 67.98803711 159.85522461 C65.75228001 158.89343447 64.00124924 157.75507192 62.05078125 156.296875 C61.29385986 155.73532715 60.53693848 155.1737793 59.75708008 154.59521484 C58.54701294 153.6818335 58.54701294 153.6818335 57.3125 152.75 C56.47033936 152.12174316 55.62817871 151.49348633 54.76049805 150.84619141 C48.54892581 146.20046878 42.37373744 141.50569594 36.23046875 136.77001953 C32.71373378 134.06044478 29.17861871 131.38460594 25.59375 128.765625 C24.87533936 128.23791504 24.15692871 127.71020508 23.41674805 127.16650391 C22.06655202 126.17739407 20.71161946 125.19469924 19.35083008 124.22021484 C15.4808836 121.37647124 12.3696966 118.36347211 9.34838867 114.62646484 C8.00957254 112.95610286 8.00957254 112.95610286 6.38427734 111.40820312 C4.7437101 109.7392804 4.18828733 108.33016964 3.4375 106.125 C2.69627958 103.98928016 1.98946987 101.9791802 0.96755981 99.95869446 C-0.39651069 95.78751272 -0.26228304 91.88909103 -0.22705078 87.52807617 C-0.22729185 86.56599149 -0.22753292 85.6039068 -0.2277813 84.61266804 C-0.22629144 81.50600674 -0.21107358 78.39958699 -0.1953125 75.29296875 C-0.19237105 73.37194942 -0.19033124 71.45092848 -0.18920898 69.52990723 C-0.17873345 62.415747 -0.15081097 55.30162112 -0.125 48.1875 C-0.08375 32.285625 -0.0425 16.38375 0 0 Z M8 8 C7.9175 22.664375 7.835 37.32875 7.75 52.4375 C7.71358398 57.05419678 7.67716797 61.67089355 7.63964844 66.42749023 C7.62626415 70.59466722 7.62626415 70.59466722 7.6182251 74.76185608 C7.61211474 76.60649992 7.598113 78.45112857 7.57769775 80.29566956 C7.54820205 83.10290946 7.54438302 85.90917994 7.54589844 88.71655273 C7.531506 89.52732238 7.51711357 90.33809202 7.502285 91.17343044 C7.54546594 97.19279827 9.22257539 101.68987795 12 107 C12.66 107 13.32 107 14 107 C14.36158203 107.86238281 14.36158203 107.86238281 14.73046875 108.7421875 C22.44491421 122.46203204 43.42043582 133.26527609 56.22265625 142.265625 C57.20105469 142.96171875 58.17945313 143.6578125 59.1875 144.375 C60.04730469 144.98085937 60.90710938 145.58671875 61.79296875 146.2109375 C63.96168616 147.96894206 65.44218847 149.69626569 67 152 C70.99090336 151.40840727 73.32188222 149.41592636 76.4375 146.9375 C77.59568469 146.02649198 78.75459164 145.11640175 79.9140625 144.20703125 C80.55762695 143.69994629 81.20119141 143.19286133 81.86425781 142.67041016 C85.98319513 139.4489002 90.15154351 136.29190849 94.3125 133.125 C95.21033203 132.43849365 96.10816406 131.7519873 97.03320312 131.04467773 C101.22249036 127.84645746 105.423965 124.6739446 109.6953125 121.5859375 C110.41549561 121.06112793 111.13567871 120.53631836 111.87768555 119.99560547 C113.19481793 119.03925215 114.5186427 118.09200624 115.85083008 117.15673828 C121.62036443 112.95175715 126.11230712 107.56615609 129 101 C129.29023231 99.04029451 129.29023231 99.04029451 129.24050903 96.98834229 C129.24326403 96.20195499 129.24601902 95.4155677 129.2488575 94.60535049 C129.24166128 93.74848522 129.23446507 92.89161995 129.22705078 92.00878906 C129.22741239 90.62531595 129.22741239 90.62531595 129.2277813 89.21389389 C129.22628959 86.23103916 129.21106325 83.24843497 129.1953125 80.265625 C129.19237163 78.42301555 129.19033146 76.58040443 129.18920898 74.73779297 C129.17872679 67.90850315 129.15080436 61.07924911 129.125 54.25 C129.08375 38.9875 129.0425 23.725 129 8 C89.07 8 49.14 8 8 8 Z " fill="#84B9DF" transform="translate(29,18)"/>
<path d="M0 0 C0 12.54 0 25.08 0 38 C-10.05109489 35.76642336 -10.05109489 35.76642336 -14.4375 33.125 C-18.72123862 30.66349329 -22.95987622 28.70162074 -27.5703125 26.94140625 C-32.13197165 25.17394667 -36.62387868 23.18806066 -41 21 C-40.00011101 18.34836068 -39.41294302 17.2174179 -36.86328125 15.875 C-36.02152344 15.58625 -35.17976563 15.2975 -34.3125 15 C-31.19734582 13.85911378 -28.33178109 12.73015742 -25.5 11 C-21.9353084 8.8459802 -18.16716418 7.43523696 -14.2890625 5.94140625 C-11.68539409 4.87061429 -9.39865242 3.46584315 -7 2 C-1.52631579 0 -1.52631579 0 0 0 Z " fill="#94C6EA" transform="translate(97,54)"/>
<path d="M0 0 C3.76274399 0.7525488 5.71031331 1.18103907 8.875 2.875 C11.86986776 4.46641508 14.91871531 5.82669126 18.04199219 7.14794922 C22.40033391 9.04453433 26.66655134 11.15033332 30.94726562 13.21484375 C31.66978516 13.55902344 32.39230469 13.90320313 33.13671875 14.2578125 C33.78342529 14.5686377 34.43013184 14.87946289 35.09643555 15.19970703 C37.04357177 16.01831836 38.94088036 16.5420367 41 17 C41 17.99 41 18.98 41 20 C40.04480469 20.36351563 39.08960938 20.72703125 38.10546875 21.1015625 C30.97930375 23.85762995 24.28928679 26.824599 17.63671875 30.61328125 C12.05453077 33.54909863 6.10306596 35.47423351 0 37 C0 24.79 0 12.58 0 0 Z " fill="#071B29" transform="translate(98,55)"/>
<path d="M0 0 C6.70072993 2.23357664 6.70072993 2.23357664 9.9375 3.9375 C12.40064754 5.20399552 14.82076629 6.34958564 17.375 7.4375 C22.00429097 9.43288404 26.49117378 11.74558689 31 14 C31 23.57 31 33.14 31 43 C27.49865736 41.83288579 27.47284383 41.41941857 25.875 38.3125 C23.31277084 33.93470355 20.20401161 31.78317244 15.890625 29.2265625 C14 28 14 28 13 26 C9.95418731 25.53045739 9.95418731 25.53045739 6.4375 25.375 C4.313125 25.25125 2.18875 25.1275 0 25 C0 16.75 0 8.5 0 0 Z " fill="#86C1EB" transform="translate(66,84)"/>
<path d="M0 0 C0 8.25 0 16.5 0 25 C-3.403125 25.2165625 -3.403125 25.2165625 -6.875 25.4375 C-15.0690744 26.30134385 -19.66695514 29.69077159 -25 36 C-26.78852997 38.28234683 -28.40172234 40.57680484 -30 43 C-30.33 43 -30.66 43 -31 43 C-31 33.43 -31 23.86 -31 14 C-13.1326201 4.35728704 -13.1326201 4.35728704 -4 1 C-2 0 -2 0 0 0 Z " fill="#061A27" transform="translate(129,84)"/>
<path d="M0 0 C39.93 0 79.86 0 121 0 C121.103125 15.18 121.20625 30.36 121.3125 46 C121.35802002 50.78242187 121.40354004 55.56484375 121.45043945 60.4921875 C121.47302246 66.359375 121.47302246 66.359375 121.47721863 69.11132812 C121.48486628 71.02186922 121.5023891 72.93238707 121.52787781 74.84277344 C121.56467134 77.74716721 121.56952393 80.65009435 121.56762695 83.5546875 C121.58561749 84.39716034 121.60360804 85.23963318 121.62214375 86.1076355 C121.56817542 92.31271263 119.6998597 96.08699021 116 101 C115.25234375 102.01964844 114.5046875 103.03929687 113.734375 104.08984375 C110.24500431 107.80353113 106.39346436 110.61949422 102.25 113.5625 C100.54330858 114.7968477 98.83759945 116.03255458 97.1328125 117.26953125 C96.27461914 117.89037598 95.41642578 118.5112207 94.53222656 119.15087891 C90.68551243 121.95988516 86.90227776 124.84863787 83.125 127.75 C82.43156494 128.27940186 81.73812988 128.80880371 81.02368164 129.35424805 C77.71327608 131.88739723 74.43108376 134.44719429 71.19140625 137.0703125 C70.59763184 137.54500977 70.00385742 138.01970703 69.39208984 138.50878906 C67.79928921 139.78540212 66.21756073 141.07579546 64.63671875 142.3671875 C62 144 62 144 59.70703125 143.8828125 C58 143 58 143 57 141 C57.7115625 141.0825 58.423125 141.165 59.15625 141.25 C62.99786071 140.91227598 64.52094893 139.43449335 67.5 137 C68.6487238 136.07946015 69.79854394 135.16028742 70.94921875 134.2421875 C71.58649902 133.72881836 72.2237793 133.21544922 72.88037109 132.68652344 C76.97177487 129.43111947 81.14966825 126.28813647 85.3125 123.125 C86.6593689 122.09318604 86.6593689 122.09318604 88.03344727 121.04052734 C92.21006065 117.84604864 96.40009526 114.68989638 100.6953125 111.65625 C109.26950058 105.56112483 115.55658536 100.33024392 119 90 C119.12033251 87.15589836 119.18537448 84.33457987 119.20532227 81.48950195 C119.21535499 80.60695582 119.22538771 79.72440969 119.23572445 78.81511974 C119.26712548 75.95620035 119.29188727 73.09726709 119.31640625 70.23828125 C119.33480821 68.47407579 119.35364481 66.7098748 119.3729248 64.94567871 C119.44138884 58.40133884 119.50143114 51.85691306 119.5625 45.3125 C119.706875 30.689375 119.85125 16.06625 120 1 C80.73 1 41.46 1 1 1 C1.144375 15.334375 1.28875 29.66875 1.4375 44.4375 C1.48060303 48.97040771 1.52370605 53.50331543 1.56811523 58.17358398 C1.6113492 62.22248796 1.6113492 62.22248796 1.65589905 66.27137756 C1.67517138 68.08048185 1.69248108 69.88960766 1.70826721 71.69874573 C1.73249807 74.43261637 1.76287718 77.16635486 1.79467773 79.90014648 C1.80044799 80.71159591 1.80621824 81.52304533 1.81216335 82.35908413 C1.52384554 85.97881028 1.52384554 85.97881028 3 89 C3.04080783 90.99958364 3.04254356 93.00045254 3 95 C-0.13425243 90.29862135 -0.13732518 87.04068864 -0.11352539 81.51123047 C-0.11364593 80.61889269 -0.11376646 79.72655491 -0.11389065 78.80717659 C-0.11314256 75.91048845 -0.10551901 73.01386417 -0.09765625 70.1171875 C-0.09618651 68.33211295 -0.095166 66.54703796 -0.09460449 64.76196289 C-0.08935532 58.1329687 -0.07539419 51.50398373 -0.0625 44.875 C-0.041875 30.06625 -0.02125 15.2575 0 0 Z " fill="#345D7A" transform="translate(37,26)"/>
<path d="M0 0 C1.32 0.66 2.64 1.32 4 2 C2.73097443 10.29187678 -2.46314478 16.09582975 -8.96313477 21.05834961 C-10.06419556 21.86477905 -10.06419556 21.86477905 -11.1875 22.6875 C-11.96343506 23.27345947 -12.73937012 23.85941895 -13.53881836 24.46313477 C-16.01413581 26.32513871 -18.50493031 28.16456857 -21 30 C-22.69538129 31.25511542 -24.39069395 32.51032355 -26.0859375 33.765625 C-28.50820887 35.55589757 -30.93260922 37.34274237 -33.3659668 39.11791992 C-38.65775932 42.97865336 -43.85011465 46.95197886 -49 51 C-50.32 50.01 -51.64 49.02 -53 48 C-45.11354321 40.3740568 -36.17185677 34.16116597 -27.33105469 27.70996094 C-23.98663106 25.25663636 -20.67155609 22.76718162 -17.375 20.25 C-16.35148437 19.47140625 -15.32796875 18.6928125 -14.2734375 17.890625 C-11.93384967 16.2024897 -11.93384967 16.2024897 -11 14 C-6.5 11 -6.5 11 -4 11 C-2.50859979 7.37802806 -1.2125738 3.72433382 0 0 Z " fill="#133044" transform="translate(152,114)"/>
<path d="M0 0 C18.48 0 36.96 0 56 0 C56.12032643 20.6426672 56.12032643 20.6426672 56.14648438 29.46875 C56.16439016 35.48185202 56.18553111 41.49481647 56.22631836 47.5078125 C56.25900927 52.35778813 56.27687355 57.20761614 56.28463173 62.05769348 C56.29015779 63.90438662 56.30094878 65.75107204 56.31719017 67.59770203 C56.33909397 70.19226287 56.34196155 72.78622036 56.34057617 75.38085938 C56.351362 76.1375592 56.36214783 76.89425903 56.3732605 77.67388916 C56.34239048 83.04685544 55.11188394 87.05660204 53 92 C52 89 52 89 52.91757202 85.82688904 C54.07696089 81.72790727 54.30640321 77.98809586 54.31884766 73.76977539 C54.33391609 72.58318329 54.33391609 72.58318329 54.34928894 71.37261963 C54.37996091 68.78097196 54.3971112 66.18942683 54.4140625 63.59765625 C54.43278704 61.79161202 54.4523614 59.98557641 54.4727478 58.17955017 C54.52393919 53.44336041 54.56363424 48.70714233 54.60089111 43.9708252 C54.64807585 38.27879294 54.70961775 32.58689978 54.76873779 26.89498138 C54.85679156 18.26337748 54.92666928 9.63179809 55 1 C37.18 1 19.36 1 1 1 C1 8.59 1 16.18 1 24 C1.66 24.33 2.32 24.66 3 25 C2.34 25 1.68 25 1 25 C1 37.21 1 49.42 1 62 C1.66 62.33 2.32 62.66 3 63 C2.34 63 1.68 63 1 63 C1 64.32 1 65.64 1 67 C1.66 67.33 2.32 67.66 3 68 C2.34 68 1.68 68 1 68 C1.11817917 71.95121228 1.24242233 75.90218229 1.37231445 79.85302734 C1.43698251 81.85894807 1.49683106 83.86502228 1.55664062 85.87109375 C1.61948242 87.75634766 1.61948242 87.75634766 1.68359375 89.6796875 C1.72025146 90.84226074 1.75690918 92.00483398 1.79467773 93.20263672 C1.81821659 95.9535501 1.81821659 95.9535501 3 98 C2.34 98 1.68 98 1 98 C1.33 109.55 1.66 121.1 2 133 C1.34 133 0.68 133 0 133 C-0.14298018 128.21282589 -0.28538147 123.42563504 -0.42724609 118.63842773 C-0.4755894 117.00984227 -0.52409095 115.38126149 -0.57275391 113.75268555 C-0.64266894 111.41195877 -0.71201507 109.07121573 -0.78125 106.73046875 C-0.80312378 106.00224411 -0.82499756 105.27401947 -0.84753418 104.52372742 C-0.99459308 99.52538916 -0.96212556 94.57871869 -0.78125 89.58203125 C-0.73613281 88.32841797 -0.69101563 87.07480469 -0.64453125 85.78320312 C-0.57298828 83.81770508 -0.57298828 83.81770508 -0.5 81.8125 C-0.45177374 80.47721532 -0.40359609 79.14192888 -0.35546875 77.80664062 C-0.237458 74.5377428 -0.1189483 71.26886382 0 68 C-1.32 67.34 -2.64 66.68 -4 66 C-2.68 66 -1.36 66 0 66 C0 65.01 0 64.02 0 63 C-0.66 62.67 -1.32 62.34 -2 62 C-1.34 62 -0.68 62 0 62 C0 41.54 0 21.08 0 0 Z " fill="#6A9ABC" transform="translate(97,30)"/>
<path d="M0 0 C0.55816406 0.21914062 1.11632812 0.43828125 1.69140625 0.6640625 C0.70140625 1.3240625 -0.28859375 1.9840625 -1.30859375 2.6640625 C0.01140625 2.9940625 1.33140625 3.3240625 2.69140625 3.6640625 C2.69140625 12.5740625 2.69140625 21.4840625 2.69140625 30.6640625 C-1.59859375 30.6640625 -5.88859375 30.6640625 -10.30859375 30.6640625 C-10.30859375 30.3340625 -10.30859375 30.0040625 -10.30859375 29.6640625 C-6.67859375 29.6640625 -3.04859375 29.6640625 0.69140625 29.6640625 C0.69140625 21.4140625 0.69140625 13.1640625 0.69140625 4.6640625 C-4.25859375 7.1390625 -4.25859375 7.1390625 -9.30859375 9.6640625 C-12.80859375 11.1640625 -12.80859375 11.1640625 -16.30859375 12.6640625 C-18.87392026 13.98462716 -21.43127725 15.31695968 -23.9765625 16.67578125 C-26.30859375 17.6640625 -26.30859375 17.6640625 -30.30859375 17.6640625 C-30.30859375 16.3440625 -30.30859375 15.0240625 -30.30859375 13.6640625 C-27.41692136 10.80026166 -24.03282382 9.69049136 -20.24609375 8.3515625 C-14.67313139 6.29935676 -9.71182839 3.79445839 -4.6484375 0.703125 C-2.30859375 -0.3359375 -2.30859375 -0.3359375 0 0 Z " fill="#659EC5" transform="translate(128.30859375,79.3359375)"/>
<path d="M0 0 C0.99 0.66 1.98 1.32 3 2 C2.34 2 1.68 2 1 2 C1 14.21 1 26.42 1 39 C1.66 39.33 2.32 39.66 3 40 C2.34 40 1.68 40 1 40 C1 41.32 1 42.64 1 44 C1.66 44.33 2.32 44.66 3 45 C2.34 45 1.68 45 1 45 C1.11817917 48.95121228 1.24242233 52.90218229 1.37231445 56.85302734 C1.43698251 58.85894807 1.49683106 60.86502228 1.55664062 62.87109375 C1.61948242 64.75634766 1.61948242 64.75634766 1.68359375 66.6796875 C1.72025146 67.84226074 1.75690918 69.00483398 1.79467773 70.20263672 C1.81821659 72.9535501 1.81821659 72.9535501 3 75 C2.34 75 1.68 75 1 75 C1.33 86.55 1.66 98.1 2 110 C1.34 110 0.68 110 0 110 C-0.14298018 105.21282589 -0.28538147 100.42563504 -0.42724609 95.63842773 C-0.4755894 94.00984227 -0.52409095 92.38126149 -0.57275391 90.75268555 C-0.64266894 88.41195877 -0.71201507 86.07121573 -0.78125 83.73046875 C-0.80312378 83.00224411 -0.82499756 82.27401947 -0.84753418 81.52372742 C-0.99459308 76.52538916 -0.96212556 71.57871869 -0.78125 66.58203125 C-0.73613281 65.32841797 -0.69101563 64.07480469 -0.64453125 62.78320312 C-0.57298828 60.81770508 -0.57298828 60.81770508 -0.5 58.8125 C-0.45177374 57.47721532 -0.40359609 56.14192888 -0.35546875 54.80664062 C-0.237458 51.5377428 -0.1189483 48.26886382 0 45 C-1.32 44.34 -2.64 43.68 -4 43 C-2.68 43 -1.36 43 0 43 C0 42.01 0 41.02 0 40 C-0.66 39.67 -1.32 39.34 -2 39 C-1.34 39 -0.68 39 0 39 C0 26.13 0 13.26 0 0 Z " fill="#40647E" transform="translate(97,53)"/>
<path d="M0 0 C0.33 0 0.66 0 1 0 C1.01030746 1.10025009 1.02061493 2.20050018 1.03123474 3.33409119 C1.12879302 13.67928674 1.23150995 24.02441977 1.33933926 34.36951351 C1.39461407 39.68862221 1.44804122 45.00773635 1.49731445 50.3269043 C1.54489094 55.45568867 1.59723104 60.5844039 1.65294075 65.71310616 C1.67339484 67.67439628 1.69210275 69.63570538 1.70907402 71.59702873 C1.73305069 74.33420584 1.76311404 77.071251 1.79467773 79.80834961 C1.8004332 80.62761932 1.80618866 81.44688904 1.81211853 82.29098511 C1.51772994 85.94663295 1.51772994 85.94663295 3 89 C3.04080783 90.99958364 3.04254356 93.00045254 3 95 C-0.1342588 90.29861179 -0.13735256 87.04093678 -0.11352539 81.51123047 C-0.11367142 80.63311707 -0.11381744 79.75500366 -0.1139679 78.85028076 C-0.11326958 75.9392248 -0.10548095 73.02823232 -0.09765625 70.1171875 C-0.09579178 68.10222407 -0.09436802 66.08726019 -0.09336853 64.07229614 C-0.08954562 58.7622147 -0.07971724 53.4521605 -0.06866455 48.14208984 C-0.05844559 42.72624073 -0.05386987 37.31038722 -0.04882812 31.89453125 C-0.03809479 21.26300885 -0.02102106 10.63150669 0 0 Z " fill="#425E72" transform="translate(37,26)"/>
<path d="M0 0 C1.32 0.66 2.64 1.32 4 2 C3.43580388 5.84740968 2.36679752 8.41398441 0.1875 11.625 C-0.31394531 12.38039063 -0.81539062 13.13578125 -1.33203125 13.9140625 C-3.07145364 16.08935888 -4.5948792 17.59189391 -7 19 C-7.99 18.67 -8.98 18.34 -10 18 C-9.505 17.566875 -9.01 17.13375 -8.5 16.6875 C-6.66781808 15.00259517 -6.66781808 15.00259517 -7 12 C-6.01 11.67 -5.02 11.34 -4 11 C-2.84979475 8.75256244 -2.84979475 8.75256244 -2 6 C-1.62875 4.906875 -1.2575 3.81375 -0.875 2.6875 C-0.58625 1.800625 -0.2975 0.91375 0 0 Z " fill="#163449" transform="translate(152,114)"/>
<path d="M0 0 C-0.19921875 1.828125 -0.19921875 1.828125 -1 4 C-3.14453125 5.484375 -3.14453125 5.484375 -5.8125 6.75 C-6.68519531 7.17796875 -7.55789062 7.6059375 -8.45703125 8.046875 C-11 9 -11 9 -15 9 C-15 5 -15 5 -13.4375 3.4375 C-4.35756972 -1.91733068 -4.35756972 -1.91733068 0 0 Z " fill="#71A7CD" transform="translate(113,88)"/>
<path d="M0 0 C1.5 1.375 1.5 1.375 3 3 C3 3.66 3 4.32 3 5 C2.34 5 1.68 5 1 5 C1.33 16.55 1.66 28.1 2 40 C1.34 40 0.68 40 0 40 C-0.14298018 35.21282589 -0.28538147 30.42563504 -0.42724609 25.63842773 C-0.4755894 24.00984227 -0.52409095 22.38126149 -0.57275391 20.75268555 C-0.64266894 18.41195877 -0.71201507 16.07121573 -0.78125 13.73046875 C-0.80312378 13.00224411 -0.82499756 12.27401947 -0.84753418 11.52372742 C-1.09034156 3.27102467 -1.09034156 3.27102467 0 0 Z " fill="#3D6D8F" transform="translate(97,123)"/>
<path d="M0 0 C0.33 0 0.66 0 1 0 C1 10.23 1 20.46 1 31 C2.32 30.67 3.64 30.34 5 30 C3.625 32 3.625 32 2 34 C1.34 34 0.68 34 0 34 C0 22.78 0 11.56 0 0 Z " fill="#62A8DA" transform="translate(98,128)"/>
<path d="M0 0 C1.32 0.33 2.64 0.66 4 1 C1.19372222 5.74908547 -1.25091453 8.19372222 -6 11 C-5.39305845 7.84669446 -4.3583335 5.81111133 -2.4375 3.25 C-1.98246094 2.63640625 -1.52742188 2.0228125 -1.05859375 1.390625 C-0.70925781 0.93171875 -0.35992187 0.4728125 0 0 Z " fill="#122E41" transform="translate(116,148)"/>
<path d="M0 0 C2.625 -0.1875 2.625 -0.1875 5 0 C4.2575 0.8971875 4.2575 0.8971875 3.5 1.8125 C1.71723582 3.97029994 1.71723582 3.97029994 2 7 C-0.5 8.6875 -0.5 8.6875 -3 10 C-2.835 9.401875 -2.67 8.80375 -2.5 8.1875 C-1.8885876 5.88655664 -1.8885876 5.88655664 -2 3 C-1.34 2.01 -0.68 1.02 0 0 Z " fill="#1B3B53" transform="translate(141,128)"/>
<path d="M0 0 C-1.39750048 3.15835107 -3.05198234 5.32272825 -5.5 7.75 C-6.41265625 8.67039062 -6.41265625 8.67039062 -7.34375 9.609375 C-9 11 -9 11 -11 11 C-9.60249952 7.84164893 -7.94801766 5.67727175 -5.5 3.25 C-4.8915625 2.63640625 -4.283125 2.0228125 -3.65625 1.390625 C-2 0 -2 0 0 0 Z " fill="#629DC7" transform="translate(113,112)"/>
<path d="M0 0 C0.33 0.99 0.66 1.98 1 3 C-0.9628843 6.1708131 -2.12536 7.74158364 -5.75 8.8125 C-6.4925 8.874375 -7.235 8.93625 -8 9 C-7.23587913 7.87043002 -6.46340197 6.74651022 -5.6875 5.625 C-5.25824219 4.99851563 -4.82898438 4.37203125 -4.38671875 3.7265625 C-3 2 -3 2 0 0 Z " fill="#0A2130" transform="translate(150,124)"/>
<path d="M0 0 C2.25 0.25 2.25 0.25 4 1 C3.75 2.875 3.75 2.875 3 5 C0.9375 6.25 0.9375 6.25 -1 7 C-1.33 6.34 -1.66 5.68 -2 5 C-2.66 4.67 -3.32 4.34 -4 4 C-2.25 1.9375 -2.25 1.9375 0 0 Z " fill="#102B3E" transform="translate(103,158)"/>
<path d="M0 0 C1.32 0.66 2.64 1.32 4 2 C3.67 3.65 3.34 5.3 3 7 C1.68 7.33 0.36 7.66 -1 8 C-0.67 5.36 -0.34 2.72 0 0 Z " fill="#102A3C" transform="translate(152,114)"/>
<path d="M0 0 C0.598125 0.226875 1.19625 0.45375 1.8125 0.6875 C0.8225 1.3475 -0.1675 2.0075 -1.1875 2.6875 C-0.1975 3.3475 0.7925 4.0075 1.8125 4.6875 C-0.4975 5.3475 -2.8075 6.0075 -5.1875 6.6875 C-5.1875 2.6875 -5.1875 2.6875 -3.9375 0.875 C-2.1875 -0.3125 -2.1875 -0.3125 0 0 Z " fill="#679BC0" transform="translate(128.1875,79.3125)"/>
<path d="M0 0 C0.99 0.33 1.98 0.66 3 1 C2 4 2 4 -1 6 C-1.99 6 -2.98 6 -4 6 C-2.25 1.125 -2.25 1.125 0 0 Z " fill="#7DB7E0" transform="translate(115,85)"/>
<path d="M0 0 C0.66 0.33 1.32 0.66 2 1 C-1.75 6.875 -1.75 6.875 -4 8 C-3.40072174 4.64404172 -2.15377564 2.62198774 0 0 Z " fill="#081E2D" transform="translate(114,151)"/>
</svg>
